<svg xmlns="http://www.w3.org/2000/svg" fill="none" viewBox="0 0 19 22">
  <path fill="#000" d="M15.3662 11.5576c-.0098-1.79197.8008-3.14451 2.4414-4.14061-.918-1.31347-2.3047-2.03613-4.1357-2.17773C11.9385 5.10254 10.0439 6.25 9.35059 6.25c-.73243 0-2.41211-.96191-3.73047-.96191C2.89551 5.33203 0 7.46094 0 11.792c0 1.2793.234375 2.6009.703125 3.9648.624995 1.792 2.880855 6.1866 5.234375 6.1133 1.23047-.0293 2.09961-.874 3.70117-.874 1.55273 0 2.35843.874 3.73043.874 2.3731-.0342 4.4141-4.0283 5.0098-5.8252-3.1836-1.499-3.0127-4.3945-3.0127-4.4873Zm-2.7637-8.01756C13.9355 1.95801 13.8135.517578 13.7744 0c-1.1767.0683594-2.539.800781-3.3154 1.7041-.85451.9668-1.35744 2.16309-1.25002 3.51074 1.27442.09766 2.43652-.55664 3.39352-1.6748Z"/>
</svg>
