<svg viewBox="0 0 501.1 512" xmlns="http://www.w3.org/2000/svg"><path d="m277.6 0c5.6 2.3 11.6 1.9 17.4 2.8 48.9 7.3 91.7 27.7 128.5 60.6 2.7 2.4 3.5 3.7.4 6.8-22.3 22-44.4 44.2-66.5 66.4-2.1 2.1-3.4 3.2-6.3.6-51.7-45.8-129.4-47.9-184.9-5.3-25.6 19.6-43.2 44.9-53.9 75.1-16.9-13.1-33.8-26.3-50.7-39.3-11.3-8.7-22.7-17.3-34-25.9.1-.5.2-1 .4-1.4 41-76.6 103.9-122.8 189.7-137.5 5.9-1 12.1-.5 17.9-2.9h3c.3 1 1.1.9 2 .9.9.1 1.6 0 2-.9h17c2 1.5 4 1.5 6 0h5c.7 1.1 1.3 1.2 2 0z" fill="#e94335"/><path d="m112.3 305c8.5 24.1 21.4 45.5 40 63.1 35.3 33.4 77.2 47 125.4 41.3 23.7-2.8 45.5-10.8 65.6-23.4 14.5 11.4 29 22.8 43.5 34.1 12.7 9.9 25.3 19.9 38 29.8-19.6 18.8-42.4 32.6-67.3 43-24.2 10-49.4 15.6-75.4 18-1.2.1-2.7-.6-3.5 1h-3c-.3-1.1-1.1-1-2-.8-.7 0-1.3 0-2-.1-.8-.1-1.6 0-2 .9h-27c-.4-.9-1.2-1-2-.9-.8-.1-1.6-.2-2 .9h-4c-6.4-2.4-13.2-2.1-19.9-3.2-59.7-10.4-109.9-38.1-150.2-83.4-14.8-16.6-27.4-34.8-36.8-55 1.2-.8 2.5-1.6 3.7-2.6 26.9-20.8 53.9-41.7 80.9-62.7z" fill="#34a753"/><path d="m265.6 0c-2 1.5-4 1.5-6 0z" fill="#ea5144"/><path d="m240.5.9c-.8.1-1.6.2-2-.9h2c.1.3 0 .6 0 .9z" fill="#f4a69f"/><path d="m240.5.9v-.9h2c-.4.9-1.1 1-2 .9z" fill="#f28e87"/><path d="m272.6 0c-.7 1.2-1.3 1.1-2 0z" fill="#f2948c"/><path d="m238.6 512c.3-1 1.1-.9 2-.9v.9z" fill="#9fd6ae"/><path d="m240.6 512v-.9c.9-.1 1.6-.1 2 .9z" fill="#86cb98"/><path d="m269.6 512c.4-.9 1.2-1 2-.9v.9z" fill="#7ec791"/><path d="m271.6 512v-.9c.7 0 1.3 0 2 .1v.8z" fill="#92d0a3"/><path d="m273.6 512v-.8c.8-.1 1.6-.2 2 .8z" fill="#a8dab5"/><path d="m424.8 449.9c-12.7-9.9-25.3-19.9-38-29.8-14.5-11.4-29-22.8-43.5-34.1 12.4-9.3 23.9-19.7 32.6-32.8 7.9-11.9 13.5-24.7 17.1-38.6 1.1-4.5-.2-5-4.1-5-42.3.1-84.6 0-127 .2-4.8 0-6.2-1.2-6.1-6.1.2-28.2.2-56.3 0-84.5 0-4.7 1.1-6.2 6-6.2 76.3.2 152.6.2 229 0 4.9 0 6.7 1.2 7.4 6.3 8.4 65.4-.4 127.5-35.1 184.6-10.6 17.3-23.2 32.7-38.3 46z" fill="#4284f3"/><path d="m27.6 370.4c-11.5-21.5-18.9-44.3-23.3-68.2-10-54.8-2.6-107.3 21.4-157.5.5-1 1.2-2 1.8-3 11.3 8.6 22.7 17.2 34 25.9l50.7 39.3c-5.8 18.4-8.7 37.2-7.8 56.5.7 14.2 3.6 28 7.8 41.5-27 20.9-54 41.9-81 62.8-1.1 1-2.4 1.8-3.6 2.7z" fill="#fabb05"/></svg>